<svg width="26" height="21" viewBox="0 0 26 21" fill="none" xmlns="http://www.w3.org/2000/svg">
<path d="M10.711 15.8393C10.711 17.289 10.1808 18.5116 9.12057 19.507C8.08193 20.5023 6.81608 21 5.32304 21C3.78671 21 2.51005 20.5023 1.49305 19.507C0.497682 18.5116 0 17.289 0 15.8393C0 15.1468 0.0973726 14.4111 0.292118 13.6322C0.486863 12.8532 0.876353 11.847 1.46059 10.6136L6.49151 0H11.3601L8.66616 11.7496C9.27203 12.1824 9.7589 12.7558 10.1267 13.4699C10.5162 14.1623 10.711 14.9521 10.711 15.8393ZM25.1546 15.8393C25.1546 17.289 24.6244 18.5116 23.5642 19.507C22.5039 20.5023 21.238 21 19.7666 21C18.2736 21 17.0077 20.5023 15.9691 19.507C14.9521 18.5116 14.4436 17.289 14.4436 15.8393C14.4436 15.1468 14.541 14.4111 14.7357 13.6322C14.9305 12.8532 15.3308 11.847 15.9366 10.6136L21 0H25.8362L23.1098 11.7496C23.7373 12.1824 24.235 12.7558 24.6028 13.4699C24.9707 14.1623 25.1546 14.9521 25.1546 15.8393Z" fill="#ABB2BF"/>
</svg>
